{"title":"Jai Ho (2014) - Tumko To Aana Hi Tha - Video Song HD 1080p -Ashi","uid":9485365,"size":45374235,"categoryP":"video","categoryS":"music_videos","magnet":"?xt=urn:btih:c28c28e6a6ece0afdc6abac67cd2716f15cba7b6&amp;dn=Jai+Ho+%282014%29+-+Tumko+To+Aana+Hi+Tha+-+Video+Song+HD+1080p+-Ashi&amp;tr=udp%3A%2F%2Ftracker.openbittorrent.com%3A80&amp;tr=udp%3A%2F%2Fopen.demonii.com%3A1337&amp;tr=udp%3A%2F%2Ftracker.coppersurfer.tk%3A6969&amp;tr=udp%3A%2F%2Fexodus.desync.com%3A6969","seeders":2,"leechers":0,"uploader":"ashish.p","files":1,"time":1389879486,"description":"General\n\nComplete name : Jai Ho (2014) - Tumko To Aana Hi Tha - Video Song HD 1080p -AshishRocks- { DAKU RG }\nFormat : MPEG-4\nFormat profile : Base Media\nCodec ID : isom\nFile size :\t43.3 MiB\nDuration :\t 1mn 46s\nOverall bit rate mode : Variable\nOverall bit rate : 3 404 Kbps\nTagged date :\tUTC 2014-01-16 12:15:00\nWriting application :\tLavf53.24.2\n\nVideo\n\nID :\t1\nFormat :\tAVC\nFormat/Info : Advanced Video Codec\nFormat profile : &lt;a class=&quot;__cf_email__&quot; href=&quot;/cdn-cgi/l/email-protection&quot; data-cfemail=&quot;fcb4959b94bcb0c8d2cc&quot;&gt;[email&amp;#160;protected]&lt;/a&gt;&lt;script cf-hash='f9e31' type=&quot;text/javascript&quot;&gt;\n/* &lt;![CDATA[ */!function(){try{var t=&quot;currentScript&quot;in document?document.currentScript:function(){for(var t=document.getElementsByTagName(&quot;script&quot;),e=t.length;e--;)if(t[e].getAttribute(&quot;cf-hash&quot;))return t[e]}();if(t&amp;&amp;t.previousSibling){var e,r,n,i,c=t.previousSibling,a=c.getAttribute(&quot;data-cfemail&quot;);if(a){for(e=&quot;&quot;,r=parseInt(a.substr(0,2),16),n=2;a.length-n;n+=2)i=parseInt(a.substr(n,2),16)^r,e+=String.fromCharCode(i);e=document.createTextNode(e),c.parentNode.replaceChild(e,c)}}}catch(u){}}();/* ]]&gt; */&lt;/script&gt;\nFormat settings, CABAC :\tYes\nFormat settings, ReFrames : 2 frames\nCodec ID : avc1\nCodec ID/Info : Advanced Video Coding\nDuration :\t1mn 45s\nBit rate : 3 307 Kbps\nWidth : 1 920 pixels\nHeight : 1 080 pixels\nDisplay aspect ratio : 16:9\nFrame rate mode : Constant\nFrame rate : 25.000 fps\nColor space : YUV\nChroma subsampling : 4:2:0\nBit depth : 8 bits\nScan type : Progressive\nBits/(Pixel*Frame) :\t0.064\nStream size : 41.6 MiB (96%)\n\nAudio\n\nID :\t2\nFormat :\tAAC\nFormat/Info : Advanced Audio Codec\nFormat profile : LC\nCodec ID : 40\nDuration :\t 1mn 46s\nDuration_FirstFrame : 1s 120ms\nBit rate mode :\tVariable\nBit rate : 124 Kbps\nMaximum bit rate : 133 Kbps\nChannel(s) : 2 channels\nChannel positions :\tFront: L R\nSampling rate : 44.1 KHz\nCompression mode : Lossy\nStream size : 1.58 MiB (4%)\n","torrent":{"xt":"urn:btih:c28c28e6a6ece0afdc6abac67cd2716f15cba7b6","amp;dn":"Jai+Ho+%282014%29+-+Tumko+To+Aana+Hi+Tha+-+Video+Song+HD+1080p+-Ashi","amp;tr":["udp%3A%2F%2Ftracker.openbittorrent.com%3A80","udp%3A%2F%2Fopen.demonii.com%3A1337","udp%3A%2F%2Ftracker.coppersurfer.tk%3A6969","udp%3A%2F%2Fexodus.desync.com%3A6969"],"infoHash":"c28c28e6a6ece0afdc6abac67cd2716f15cba7b6","infoHashBuffer":{"type":"Buffer","data":[194,140,40,230,166,236,224,175,220,106,186,198,124,210,113,111,21,203,167,182]},"announce":[],"urlList":[]}}